# xmcd CD database file
#
# Track frame offsets:
#	150
#	25048
#	45652
#	69423
#	79317
#	112333
#	123603
#	141594
#	167555
#	186139
#	214095
#	221821
#	243576
#
# Disc length: 3317 seconds
#
# Revision: 0
# Processed by: cddbd v1.5.2PL0 Copyright (c) Steve Scherf et al.
# Submitted via: CDex 1.51
#
DISCID=ca0cf30d
DTITLE=Esther Kaiser - Jazz Poems
DYEAR=2004
DGENRE=Jazz
TTITLE0=Invierno Porteno
TTITLE1=Fragile
TTITLE2=Round Midnight
TTITLE3=Miriam
TTITLE4=Milonga del Angel
TTITLE5=La Muerte del Angel
TTITLE6=Lonely Woman
TTITLE7=Django
TTITLE8=Her Tomato Kiss
TTITLE9=Infant Eyes
TTITLE10=Por Toda Minha Vida
TTITLE11=Eastern Skies
TTITLE12=Andantino
EXTD=YEAR: 2004
EXTT0=
EXTT1=
EXTT2=
EXTT3=
EXTT4=
EXTT5=
EXTT6=
EXTT7=
EXTT8=
EXTT9=
EXTT10=
EXTT11=
EXTT12=
PLAYORDER=
